<svg width="30" height="24" viewBox="0 0 30 24" fill="none" xmlns="http://www.w3.org/2000/svg">
<rect width="30" height="24" fill="white"/>
<path fill-rule="evenodd" clip-rule="evenodd" d="M19.4744 21H1.86841C1.35573 21 0.9375 20.556 0.9375 20.0082V9H26.25V17.2308L23.9062 13L19.4744 21ZM18.9205 22H1.86871C0.843481 22 0 21.1085 0 20.0088V1.99116C0 0.889674 0.840625 0 1.87759 0H12.1875L14.0625 4H25.307C26.3465 4 27.1875 4.89323 27.1875 5.99509V18.9231L30 24H17.8125L18.9205 22ZM0.9375 8V1.9918C0.9375 1.45531 1.35376 1 1.86725 1H11.625L13.4625 5H25.3097C25.8245 5 26.25 5.44811 26.25 6.00087V8H0.9375ZM23.9062 15L28.3594 23H19.4531L23.9062 15ZM23.4375 17V20H24.375V17H23.4375ZM23.4375 21V22H24.375V21H23.4375Z" fill="#157EFB"/>
</svg>
