<svg width="28" height="22" viewBox="0 0 28 22" fill="none" xmlns="http://www.w3.org/2000/svg">
<path fill-rule="evenodd" clip-rule="evenodd" d="M13.44 11L9.8 7.75L8.96 8.5L14 13L19.04 8.5L18.2 7.75L14.56 11V0H13.44V11ZM15.68 6H21.728L26.628 13H19.04V15.0021C19.04 16.1017 18.0384 17 16.8029 17H11.1971C9.96336 17 8.96 16.1055 8.96 15.0021V13H1.37197L6.27197 6H12.32V5H5.6L0 13V13.5V22H28V13.5V13L22.4 5H15.68V6ZM20.16 14H26.88V21H1.12V14H7.84V15.5C7.84 16.8807 9.08911 18 10.6356 18H17.3644C18.9084 18 20.16 16.8903 20.16 15.5V14Z" fill="#157EFB"/>
</svg>
