<?xml version="1.0" encoding="UTF-8" standalone="no"?>
<!DOCTYPE svg PUBLIC "-//W3C//DTD SVG 1.1//EN" "http://www.w3.org/Graphics/SVG/1.1/DTD/svg11.dtd">
<svg version="1.1" xmlns="http://www.w3.org/2000/svg" xmlns:xlink="http://www.w3.org/1999/xlink" preserveAspectRatio="xMidYMid meet" viewBox="0 0 640 640" width="640" height="640"><defs><path d="M558.98 100.1L560.46 100.23L561.93 100.41L563.38 100.64L564.82 100.92L566.25 101.24L567.66 101.62L569.06 102.04L570.44 102.5L571.8 103.01L573.14 103.56L574.45 104.16L575.75 104.8L577.02 105.48L578.27 106.21L579.5 106.97L580.69 107.78L581.86 108.62L583 109.5L584.11 110.42L585.19 111.37L586.23 112.37L587.25 113.39L588.23 114.45L589.17 115.55L590.08 116.68L590.94 117.84L591.77 119.03L592.56 120.25L593.31 121.5L594.02 122.78L594.68 124.09L595.3 125.43L595.87 126.8L596.39 128.19L596.87 129.6L597.3 131.05L597.67 132.51L598 134L598.15 134.15L598.29 134.31L598.42 134.48L598.54 134.66L598.66 134.84L598.77 135.02L598.88 135.21L598.98 135.41L599.07 135.61L599.16 135.81L599.24 136.02L599.31 136.23L599.38 136.45L599.45 136.66L599.51 136.88L599.57 137.1L599.62 137.33L599.67 137.55L599.71 137.78L599.75 138L599.79 138.22L599.82 138.45L599.85 138.67L599.87 138.9L599.89 139.12L599.91 139.34L599.93 139.55L599.95 139.77L599.96 139.98L599.97 140.19L599.98 140.39L599.98 140.59L599.99 140.79L599.99 140.98L600 141.16L600 141.34L600 141.52L600 141.69L600 141.85L600 142L600 516L599.96 517.79L599.85 519.57L599.67 521.33L599.42 523.06L599.09 524.78L598.7 526.48L598.25 528.15L597.73 529.79L597.14 531.41L596.5 533L595.8 534.56L595.03 536.09L594.21 537.58L593.34 539.04L592.41 540.47L591.42 541.86L590.39 543.2L589.31 544.51L588.18 545.78L587 547L585.78 548.18L584.51 549.31L583.2 550.39L581.86 551.42L580.47 552.41L579.04 553.34L577.58 554.21L576.09 555.03L574.56 555.8L573 556.5L571.41 557.14L569.79 557.73L568.15 558.25L566.48 558.7L564.78 559.09L563.06 559.42L561.33 559.67L559.57 559.85L557.79 559.96L556 560L84 560L82.21 559.96L80.43 559.85L78.67 559.67L76.94 559.42L75.22 559.09L73.52 558.7L71.85 558.25L70.21 557.73L68.59 557.14L67 556.5L65.44 555.8L63.91 555.03L62.42 554.21L60.96 553.34L59.53 552.41L58.14 551.42L56.8 550.39L55.49 549.31L54.22 548.18L53 547L51.82 545.78L50.69 544.51L49.61 543.2L48.58 541.86L47.59 540.47L46.66 539.04L45.79 537.58L44.97 536.09L44.2 534.56L43.5 533L42.86 531.41L42.27 529.79L41.75 528.15L41.3 526.48L40.91 524.78L40.58 523.06L40.33 521.33L40.15 519.57L40.04 517.79L40 516L40 144L40.04 142.21L40.15 140.43L40.33 138.67L40.58 136.94L40.91 135.22L41.3 133.52L41.75 131.85L42.27 130.21L42.86 128.59L43.5 127L44.2 125.44L44.97 123.91L45.79 122.42L46.66 120.96L47.59 119.53L48.58 118.14L49.61 116.8L50.69 115.49L51.82 114.22L53 113L54.22 111.82L55.49 110.69L56.8 109.61L58.14 108.58L59.53 107.59L60.96 106.66L62.42 105.79L63.91 104.97L65.44 104.2L67 103.5L68.59 102.86L70.21 102.27L71.85 101.75L73.52 101.3L75.22 100.91L76.94 100.58L78.67 100.33L80.43 100.15L82.21 100.04L84 100L556 100L557.5 100.03L558.98 100.1ZM80 184L80 516L80 516.15L80.01 516.3L80.03 516.45L80.06 516.6L80.09 516.75L80.13 516.89L80.17 517.04L80.22 517.18L80.28 517.33L80.34 517.47L80.41 517.61L80.49 517.75L80.57 517.88L80.65 518.01L80.74 518.14L80.83 518.27L80.93 518.4L81.03 518.52L81.14 518.64L81.25 518.75L81.36 518.86L81.48 518.97L81.6 519.07L81.73 519.17L81.86 519.26L81.99 519.35L82.12 519.43L82.25 519.51L82.39 519.59L82.53 519.66L82.67 519.72L82.82 519.78L82.96 519.83L83.11 519.87L83.25 519.91L83.4 519.94L83.55 519.97L83.7 519.99L83.85 520L84 520L556 520L556.15 520L556.3 519.99L556.45 519.97L556.6 519.94L556.75 519.91L556.89 519.87L557.04 519.83L557.18 519.78L557.33 519.72L557.47 519.66L557.61 519.59L557.75 519.51L557.88 519.43L558.01 519.35L558.14 519.26L558.27 519.17L558.4 519.07L558.52 518.97L558.64 518.86L558.75 518.75L558.86 518.64L558.97 518.52L559.07 518.4L559.17 518.27L559.26 518.14L559.35 518.01L559.43 517.88L559.51 517.75L559.59 517.61L559.66 517.47L559.72 517.33L559.78 517.18L559.83 517.04L559.87 516.89L559.91 516.75L559.94 516.6L559.97 516.45L559.99 516.3L560 516.15L560 516L560 182L320 376L80 184ZM320 324L548 140L90 140L320 324Z" id="aksqT9AOL"></path></defs><g><g><g><use xlink:href="#aksqT9AOL" opacity="1" fill="#0f82ff" fill-opacity="1"></use><g><use xlink:href="#aksqT9AOL" opacity="1" fill-opacity="0" stroke="#0f82ff" stroke-width="1" stroke-opacity="0"></use></g></g></g></g></svg>