<svg width="28" height="18" viewBox="0 0 28 18" fill="none" xmlns="http://www.w3.org/2000/svg">
<rect width="28" height="18" fill="white"/>
<path fill-rule="evenodd" clip-rule="evenodd" d="M19.04 8.47059H26.628L21.728 1.05882H6.27197L1.37197 8.47059H8.96V10.5904C8.96 11.7588 9.96336 12.7059 11.1971 12.7059H16.8029C18.0384 12.7059 19.04 11.7548 19.04 10.5904V8.47059ZM20.16 9.52941H26.88V16.9412H1.12V9.52941H7.84V11.1176C7.84 12.5796 9.08911 13.7647 10.6356 13.7647H17.3644C18.9084 13.7647 20.16 12.5898 20.16 11.1176V9.52941ZM0 9V8.47059L5.6 0H22.4L28 8.47059V9V18H0V9Z" fill="#0F82FF"/>
</svg>
