<svg width="28" height="23" viewBox="0 0 28 23" fill="none" xmlns="http://www.w3.org/2000/svg">
<rect width="28" height="23" fill="white"/>
<path fill-rule="evenodd" clip-rule="evenodd" d="M13.44 1.91667L9.8 5.03125L8.96 4.3125L14 0L19.04 4.3125L18.2 5.03125L14.56 1.91667V12.4583H13.44V1.91667ZM15.68 7.66667H21.728L26.628 14.375H19.04V16.2937C19.04 17.3475 18.0384 18.2083 16.8029 18.2083H11.1971C9.96336 18.2083 8.96 17.3511 8.96 16.2937V14.375H1.37197L6.27197 7.66667H12.32V6.70833H5.6L0 14.375V14.8542V23H28V14.8542V14.375L22.4 6.70833H15.68V7.66667ZM20.16 15.3333H26.88V22.0417H1.12V15.3333H7.84V16.7708C7.84 18.094 9.08911 19.1667 10.6356 19.1667H17.3644C18.9084 19.1667 20.16 18.1032 20.16 16.7708V15.3333Z" fill="#157EFB"/>
</svg>
