<svg width="30" height="24" viewBox="0 0 30 24" fill="none" xmlns="http://www.w3.org/2000/svg">
<rect width="30" height="24" fill="white"/>
<path fill-rule="evenodd" clip-rule="evenodd" d="M28.14 15.6912C28.7173 16.461 29.0625 17.4375 29.0625 18.5C29.0625 20.9853 27.1737 23 24.8438 23C23.8477 23 22.9322 22.6318 22.2105 22.0159L28.14 15.6912ZM27.477 14.9841C26.7553 14.3682 25.8398 14 24.8438 14C22.5138 14 20.625 16.0147 20.625 18.5C20.625 19.5625 20.9702 20.539 21.5475 21.3088L27.477 14.9841ZM20.2497 21H1.86841C1.35573 21 0.9375 20.556 0.9375 20.0082V9H26.25V13.207C25.803 13.0722 25.3313 13 24.8438 13C21.996 13 19.6875 15.4624 19.6875 18.5C19.6875 19.4002 19.8903 20.2499 20.2497 21H20.2497ZM20.8661 22H1.86871C0.843481 22 0 21.1085 0 20.0088V1.99116C0 0.889674 0.840625 0 1.87759 0H12.1875L14.0625 4H25.307C26.3465 4 27.1875 4.89323 27.1875 5.99509V13.5997C28.857 14.5101 30 16.3627 30 18.5C30 21.5376 27.6915 24 24.8438 24C23.2426 24 21.8118 23.2215 20.8661 22ZM0.9375 8V1.9918C0.9375 1.45531 1.35376 1 1.86725 1H11.625L13.4625 5H25.3097C25.8245 5 26.25 5.44811 26.25 6.00087V8H0.9375Z" fill="#157EFB"/>
</svg>
