<svg width="21" height="27" viewBox="0 0 21 27" fill="none" xmlns="http://www.w3.org/2000/svg">
<rect width="21" height="27" fill="white"/>
<path fill-rule="evenodd" clip-rule="evenodd" d="M17 4H15V2.00488C15 0.897616 14.1041 0 13.0026 0H7.99739C6.89426 0 6 0.8939 6 2.00488V4H4H0V5H2V23.9932C2 25.6538 3.33396 27 5.00013 27H15.9999C17.6568 27 19 25.664 19 23.9932V5H21V4H17ZM3 5V24.0054C3 25.107 3.8934 26 4.99188 26H16.0081C17.1082 26 18 25.0977 18 24.0054V5H3ZM6 7V24H7V7H6ZM10 7V24H11V7H10ZM14 7V24H15V7H14ZM8.00293 1C7.44903 1 7 1.44266 7 1.99896V4H14V1.99896C14 1.44725 13.5621 1 12.9971 1H8.00293Z" fill="#157EFB"/>
</svg>
